<svg xmlns="http://www.w3.org/2000/svg" viewBox="0 0 512 512" width="512" height="512">
  <!-- 背景グラデーション（空のイメージ） -->
  <defs>
    <linearGradient id="skyGradient" x1="0%" y1="0%" x2="0%" y2="100%">
      <stop offset="0%" style="stop-color:#87CEEB;stop-opacity:1" />
      <stop offset="70%" style="stop-color:#98D8F4;stop-opacity:1" />
      <stop offset="100%" style="stop-color:#B8E6FF;stop-opacity:1" />
    </linearGradient>
    
    <!-- キャラクターのグラデーション -->
    <radialGradient id="characterGradient" cx="50%" cy="40%" r="60%">
      <stop offset="0%" style="stop-color:#FFE5B4;stop-opacity:1" />
      <stop offset="100%" style="stop-color:#FFD700;stop-opacity:1" />
    </radialGradient>
    
    <!-- 影 -->
    <radialGradient id="shadowGradient" cx="50%" cy="50%" r="50%">
      <stop offset="0%" style="stop-color:#000000;stop-opacity:0.3" />
      <stop offset="100%" style="stop-color:#000000;stop-opacity:0" />
    </radialGradient>
    
    <!-- プラットフォームのグラデーション -->
    <linearGradient id="platformGradient" x1="0%" y1="0%" x2="0%" y2="100%">
      <stop offset="0%" style="stop-color:#8B4513;stop-opacity:1" />
      <stop offset="100%" style="stop-color:#654321;stop-opacity:1" />
    </linearGradient>
  </defs>
  
  <!-- 背景 -->
  <rect width="512" height="512" fill="url(#skyGradient)" rx="64" ry="64"/>
  
  <!-- 雲 -->
  <g opacity="0.7">
    <ellipse cx="100" cy="80" rx="25" ry="15" fill="white"/>
    <ellipse cx="120" cy="75" rx="30" ry="18" fill="white"/>
    <ellipse cx="140" cy="80" rx="20" ry="12" fill="white"/>
    
    <ellipse cx="350" cy="120" rx="20" ry="12" fill="white"/>
    <ellipse cx="370" cy="115" rx="25" ry="15" fill="white"/>
    <ellipse cx="390" cy="120" rx="18" ry="10" fill="white"/>
  </g>
  
  <!-- 地面のプラットフォーム -->
  <rect x="50" y="400" width="150" height="30" fill="url(#platformGradient)" rx="15"/>
  <rect x="300" y="350" width="120" height="30" fill="url(#platformGradient)" rx="15"/>
  <rect x="180" y="300" width="100" height="30" fill="url(#platformGradient)" rx="15"/>
  
  <!-- スパイクトラップ（プラットフォームの上に配置） -->
  <g transform="translate(320, 330)">
    <polygon points="0,20 10,0 20,20" fill="#666666"/>
    <polygon points="20,20 30,0 40,20" fill="#666666"/>
    <polygon points="40,20 50,0 60,20" fill="#666666"/>
  </g>
  
  <!-- ファン（風のエフェクト） -->
  <g transform="translate(400, 320)" opacity="0.6">
    <path d="M 0,0 Q 10,-5 20,0 Q 10,5 0,0" fill="#ADD8E6" opacity="0.5"/>
    <path d="M 5,-10 Q 15,-15 25,-10 Q 15,-5 5,-10" fill="#87CEEB" opacity="0.7"/>
    <path d="M 5,10 Q 15,15 25,10 Q 15,5 5,10" fill="#87CEEB" opacity="0.7"/>
  </g>
  
  <!-- 星のキラキラエフェクト -->
  <g opacity="0.8">
    <g transform="translate(80, 200) rotate(45)">
      <polygon points="0,-8 2,-2 8,0 2,2 0,8 -2,2 -8,0 -2,-2" fill="#FFD700"/>
    </g>
    <g transform="translate(380, 180) rotate(30)">
      <polygon points="0,-6 1.5,-1.5 6,0 1.5,1.5 0,6 -1.5,1.5 -6,0 -1.5,-1.5" fill="#FFD700"/>
    </g>
    <g transform="translate(450, 280) rotate(60)">
      <polygon points="0,-5 1,-1 5,0 1,1 0,5 -1,1 -5,0 -1,-1" fill="#FFD700"/>
    </g>
  </g>
</svg>